<svg xmlns:xlink="http://www.w3.org/1999/xlink" xmlns="http://www.w3.org/2000/svg" class="sc-bdVaJa dUAXTs" viewBox="0 0 6 6.4" width="68"  height="27" ><path d="M5.1.1H.9C.4.1 0 .5 0 .9v4.4h.5V.9C.5.7.7.6.8.6H5c.2 0 .3.2.3.3v4.6c0 .2-.2.3-.3.3H.9c-.1 0-.2-.1-.3-.2H.1v.1c.1.4.4.6.8.6h4.2c.5.1.9-.3.9-.8V.9c0-.5-.4-.8-.9-.8zM1.8 1.7h2.4c.1 0 .3-.1.3-.2s-.1-.2-.3-.2H1.8c-.1 0-.3.1-.3.2.1.1.2.2.3.2zm0 1.2h2.4c.1 0 .3-.1.3-.2s-.2-.3-.3-.3H1.8c-.1 0-.3.1-.3.2s.2.3.3.3zm0 1.1h2.4c.1 0 .3-.1.3-.2s-.1-.2-.3-.2H1.8c-.1 0-.3.1-.3.2.1.1.2.2.3.2zm0 1.2h2.4c.1 0 .3-.1.3-.2s-.1-.2-.3-.2H1.8c-.1 0-.3.1-.3.2.1.1.2.2.3.2z" fill="#085C55"></path></svg>