<svg xmlns:xlink="http://www.w3.org/1999/xlink" xmlns="http://www.w3.org/2000/svg" class="sc-bdVaJa iBUeGq" viewBox="0 0 8.7 8.3" width="24"  height="23" ><path d="M4.7 6.7c-.2 0-.3.2-.3.3 0 .3-.2.6-.3.6H1C.9 7.6.7 7.4.7 7V1.2C.7.9.9.6 1 .6h3.1c.2 0 .3.2.3.6 0 .2.2.3.3.3s.3-.1.3-.3C5 .5 4.5 0 4 0H1C.4 0 0 .5 0 1.2V7c0 .7.5 1.2 1 1.2h3.1c.6 0 1-.5 1-1.2 0-.1-.2-.3-.4-.3zm3.9-2.8l-2.1-2c-.2-.2-.4-.2-.5 0-.1.1-.1.3 0 .4l1.5 1.5H2.6c-.2 0-.3.2-.3.3 0 .2.2.3.3.3h4.9L6 5.9c-.1.2-.1.4 0 .5.1.1.2.1.2.1.1 0 .2 0 .2-.1l2.1-2c.2-.2.2-.4.1-.5z" fill="#085C55"></path></svg>