<svg xmlns:xlink="http://www.w3.org/1999/xlink" xmlns="http://www.w3.org/2000/svg" class="sc-bdVaJa iBUeGq" viewBox="0 0 7.8 7.9" width="22"  height="23" ><defs><path id="SVGID_3_" d="M0 .1h7.8l3 16.1L0 7.8z"></path></defs><clipPath id="SVGID_1_" fill="#085C55"><use overflow="visible" fill="#085C55"></use></clipPath><path fill="#085C55" d="M2.9 3.6c.1-.3.3-.5.5-.6.1-.1.3-.1.5-.1.1 0 .2 0 .3.1.3 0 .5.2.6.5.3.5 0 1.2-.5 1.4-.5.3-1.2 0-1.4-.5-.1-.3-.1-.5 0-.8m1 1.8c.2 0 .4-.1.6-.1.7-.3 1-1.2.7-1.9-.2-.4-.5-.7-.9-.8-.3-.2-.7-.2-1.1 0-.4.2-.6.5-.8.9-.1.3-.1.7.1 1.1.3.5.8.8 1.4.8"></path><path fill="#085C55" d="M1 5.9c.2-.1.3-.2.4-.4.1-.2.1-.4 0-.5-.1-.2-.2-.4-.4-.4-.2-.1-.4-.1-.5 0-.1-.4-.1-.9 0-1.3.3.1.8 0 .9-.4.1-.3-.1-.8-.4-.9.3-.4.6-.7.9-.9.1.1.2.3.4.3.2.1.4.1.5 0 .4-.1.5-.6.4-.9.4-.1.9-.1 1.3 0-.1.3 0 .8.4.9.4.1.8 0 .9-.4.4.3.7.6 1 1-.4.1-.6.6-.4.9.1.4.6.5.9.4.1.4.1.9 0 1.3-.4-.1-.8 0-.9.4-.1.3 0 .8.4.9-.3.4-.6.7-1 .9-.1-.2-.2-.3-.4-.3-.2-.1-.4-.1-.5 0-.2 0-.3.1-.4.3-.1.2-.1.4 0 .6-.4.1-.9.1-1.3 0 .1-.3 0-.8-.4-.9-.4-.1-.8 0-.9.4-.4-.4-.7-.7-.9-1m1.1 1.4c.1 0 .1-.1.1-.1l.1-.2c.1-.1.2-.2.4-.1.1 0 .1.1.1.3l-.1.2v.2c0 .1.1.1.1.1.3.1.7.1 1 .1.3 0 .6 0 1-.1.1 0 .1-.1.1-.1v-.4c-.1-.1 0-.3.1-.4.1-.1.3 0 .4.1l.1.2c0 .1.1.1.1.1h.2c.5-.2 1-.7 1.3-1.3v-.2c0-.1-.1-.1-.1-.1l-.2-.1c-.1 0-.2-.2-.1-.3.1-.2.2-.2.4-.2l.3.1h.2V5c.2-.6.2-1.4 0-2 0-.1-.1-.1-.1-.1h-.4c-.1.1-.3 0-.3-.1-.1-.1 0-.3.1-.4l.2-.1c.1 0 .1-.1.1-.1V2c-.3-.6-.8-1-1.4-1.4h-.2c-.1 0-.1.1-.1.1l-.1.2c0 .2-.2.2-.3.2-.2-.1-.2-.3-.2-.4L5 .5V.3L4.9.2c-.7-.2-1.4-.2-2 0-.1 0-.1.1-.1.1v.2l.1.2c.1.1 0 .3-.1.4h-.2C2.4 1 2.4 1 2.3.9L2.2.7c0-.1-.1-.1-.1-.1h-.2C1.4 1 .9 1.4.5 2v.2c0 .1.1.1.1.1l.2.1c.2 0 .3.2.2.4-.1.1-.2.2-.4.1l-.2-.1H.2c-.1 0-.1.1-.1.1-.1.7-.1 1.4 0 2 .1.1.1.1.1.2h.2L.6 5h.2c.1 0 .2.1.2.1v.2c0 .1-.1.1-.1.1l-.3.2c-.1 0-.1.1-.1.1v.2c.4.6.9 1 1.5 1.4h.1"></path></svg>